#!OML:ASF H:\MichaelJackson\Top Level 1\Subject 1\Session 1\male.ASF
:FULLY-SPECIFIED
:DEGREES
456
root 1.30935 16.459 19.059 -380.776 85.5958 -30.7574
lowerback 7.39451 -6.82577 -10.313
upperback 0.828688 -9.85891 -0.783403
thorax -1.65546 -4.82677 5.5865
lowerneck -4.05104 -14.1508 -7.4303
upperneck 15.5165 -20.5759 12.4204
head 7.51353 -9.49892 3.28091
rclavicle -3.97569e-016 -9.54166e-015
rhumerus -18.9415 25.4241 -50.3562
rradius 95.0139
rwrist 36.4995
rhand -44.4401 -4.8603
rfingers 7.12502
rthumb -17.2448 -34.1152
lclavicle -3.97569e-016 -9.54166e-015
lhumerus -31.5271 -14.2104 92.8523
lradius 38.6773
lwrist 9.39346
lhand -15.1453 7.4147
lfingers 7.12502
lthumb 11.0246 37.1052
rfemur -49.5905 12.8781 21.1533
rtibia 65.644
rfoot 4.22774 17.0914
rtoes 23.3713
lfemur -20.5419 19.2848 -20.9286
ltibia 47.7939
lfoot -35.5581 -9.56025
ltoes 10.2838
457
root 1.18017 16.4505 19.1062 -382.295 85.3476 -32.4976
lowerback 7.34707 -6.89954 -10.0583
upperback 0.78909 -9.93572 -0.640365
thorax -1.67528 -4.86743 5.59818
lowerneck -4.01742 -14.1642 -7.33075
upperneck 15.2765 -20.5908 12.5004
head 7.42947 -9.5084 3.29749
rclavicle 1.25632e-013 1.11319e-014
rhumerus -19.2003 24.7599 -49.8501
rradius 94.4646
rwrist 36.4202
rhand -45.1091 -5.20329
rfingers 7.12502
rthumb -17.8886 -34.4006
lclavicle 1.25632e-013 1.11319e-014
lhumerus -31.1672 -13.9855 92.7662
lradius 38.0015
lwrist 8.84403
lhand -14.4726 7.72506
lfingers 7.12502
lthumb 11.6734 37.3799
rfemur -49.5376 12.4767 20.5662
rtibia 67.6271
rfoot 4.06498 16.4563
rtoes 21.1932
lfemur -21.2792 19.3334 -20.7496
ltibia 47.874
lfoot -35.9216 -8.74925
ltoes 9.33383
458
root 1.05322 16.4466 19.1538 -383.771 85.0561 -34.2307
lowerback 7.25412 -6.949 -9.79368
upperback 0.747026 -9.97461 -0.483087
thorax -1.67798 -4.89048 5.6117
lowerneck -3.98339 -14.1937 -7.24612
upperneck 15.0631 -20.6358 12.6165
head 7.36325 -9.52918 3.32258
rclavicle 9.74045e-014 -2.70347e-014
rhumerus -19.4401 24.09 -49.3378
rradius 93.8152
rwrist 36.3232
rhand -45.8056 -5.66962
rfingers 7.12502
rthumb -18.5587 -34.8043
lclavicle 9.74045e-014 -2.70347e-014
lhumerus -30.8132 -13.798 92.6974
lradius 37.3737
lwrist 8.31754
lhand -13.8373 8.05184
lfingers 7.12502
lthumb 12.286 37.6709
rfemur -49.408 12.0105 19.9988
rtibia 69.2872
rfoot 4.07589 15.7836
rtoes 18.7929
lfemur -22.0415 19.3759 -20.5005
ltibia 47.9368
lfoot -36.1763 -8.17901
ltoes 8.61765
459
root 0.928435 16.4473 19.2018 -384.979 84.7161 -35.7234
lowerback 7.12575 -6.97464 -9.5326
upperback 0.701392 -9.97882 -0.317271
thorax -1.66835 -4.89693 5.62983
lowerneck -3.95173 -14.2345 -7.19063
upperneck 14.8881 -20.7046 12.7688
head 7.31994 -9.5583 3.35842
rclavicle 7.39479e-014 9.54166e-015
rhumerus -19.652 23.4348 -48.8373
rradius 93.0707
rwrist 36.1815
rhand -46.4778 -6.2622
rfingers 7.12502
rthumb -19.2052 -35.3339
lclavicle 7.39479e-014 9.54166e-015
lhumerus -30.476 -13.6529 92.6421
lradius 36.8097
lwrist 7.82988
lhand -13.2625 8.38199
lfingers 7.12502
lthumb 12.8401 37.9671
rfemur -49.2053 11.4811 19.4422
rtibia 70.6272
rfoot 4.22633 15.0686
rtoes 16.3799
lfemur -22.816 19.4399 -20.1969
ltibia 47.9811
lfoot -36.3245 -7.82735
ltoes 8.08053
460
root 0.80552 16.4519 19.2502 -385.785 84.333 -36.8284
lowerback 6.97514 -6.97324 -9.27596
upperback 0.654942 -9.94573 -0.162013
thorax -1.65434 -4.88475 5.63524
lowerneck -3.92252 -14.2886 -7.14278
upperneck 14.7519 -20.7994 12.9436
head 7.29609 -9.59675 3.39765
rclavicle 3.18055e-015 7.95139e-015
rhumerus -19.8592 22.7812 -48.3882
rradius 92.218
rwrist 36.0439
rhand -47.1366 -6.97312
rfingers 7.12502
rthumb -19.8386 -35.9806
lclavicle 3.18055e-015 7.95139e-015
lhumerus -30.1756 -13.6052 92.5896
lradius 36.3353
lwrist 7.41211
lhand -12.7477 8.71155
lfingers 7.12502
lthumb 13.3364 38.2648
rfemur -48.9295 10.8916 18.8817
rtibia 71.6637
rfoot 4.45654 14.3002
rtoes 14.0169
lfemur -23.5888 19.5465 -19.8574
ltibia 48.0115
lfoot -36.368 -7.69374
ltoes 7.76705
